<svg width="30" height="32" viewBox="0 0 30 32" fill="none" xmlns="http://www.w3.org/2000/svg">
<g id="Frame 16">
<path id="image 22 (Traced)" fill-rule="evenodd" clip-rule="evenodd" d="M13.9313 0.0585368C12.1512 0.214309 10.4665 0.968011 9.14851 2.19817C7.64012 3.60606 6.75555 5.4302 6.64838 7.35385L6.60962 8.04904L5.99437 8.08753C5.32217 8.12959 4.44293 8.33899 3.84222 8.60016C2.85087 9.03105 1.72607 9.94709 1.12306 10.8146C-0.37368 12.9678 -0.374384 15.7875 1.12114 17.9626C1.73325 18.8528 2.91429 19.8009 3.92121 20.2105C4.7314 20.54 5.2952 20.6544 6.29194 20.6918L7.20482 20.7261V22.0308V23.3355L6.8077 23.5314C5.7257 24.065 5.07195 25.3371 5.27925 26.5054C5.52531 27.8924 6.74498 28.9074 8.16574 28.9074C9.59778 28.9074 10.8174 27.8858 11.0536 26.4885C11.2521 25.3141 10.6059 24.0651 9.52379 23.5314L9.12667 23.3355V22.0222V20.7088H11.593H14.0594L14.0586 23.5721L14.0578 26.4353L13.6831 26.611C12.5875 27.1248 11.9164 28.4109 12.1246 29.5974C12.4979 31.7241 14.9857 32.7073 16.765 31.4313C18.4658 30.2116 18.2487 27.5941 16.3666 26.6279L15.9159 26.3965L15.9326 23.5683L15.9492 20.7401L18.4316 20.7237L20.914 20.7074V22.015V23.3227L20.5617 23.4911C19.1429 24.1692 18.5319 25.8618 19.2056 27.2477C19.5197 27.894 19.9158 28.289 20.5648 28.6031C21.0166 28.8219 21.166 28.8622 21.6269 28.8903C22.5114 28.944 23.209 28.7078 23.8373 28.1421C24.8279 27.2499 25.0484 25.7308 24.3549 24.5748C24.1245 24.1908 23.536 23.67 23.1243 23.4859L22.7718 23.3282V22.0322V20.7363L23.3964 20.663C25.1318 20.4591 26.606 19.742 27.8647 18.4895C29.2192 17.1416 29.9162 15.571 29.9932 13.6928C30.0605 12.0495 29.6303 10.553 28.7092 9.22694C28.3972 8.77777 27.5637 7.91843 27.1068 7.5749C25.962 6.71424 24.5509 6.17758 23.1666 6.07651L22.5684 6.03283L22.3839 5.46957C21.565 2.96889 19.3303 0.920885 16.713 0.272262C16.1639 0.136204 14.9399 -0.0205071 14.6039 0.00221096C14.5335 0.00696736 14.2308 0.032314 13.9313 0.0585368ZM8.73102 25.1962C9.19983 25.5354 9.34115 26.1644 9.04608 26.5981C8.88676 26.8324 8.42359 27.0924 8.16574 27.0924C7.9079 27.0924 7.44473 26.8324 7.28541 26.5981C7.11603 26.3491 7.08957 25.868 7.23076 25.6029C7.34332 25.3916 7.57234 25.1799 7.78144 25.094C8.01738 24.9971 8.53243 25.0525 8.73102 25.1962ZM22.306 25.1501C22.7543 25.3488 22.9882 25.8695 22.8426 26.3442C22.6949 26.8259 22.1506 27.1569 21.6555 27.0661C21.2157 26.9855 20.7859 26.4786 20.7859 26.0403C20.7859 25.7319 21.0507 25.331 21.3599 25.1713C21.6979 24.9967 21.9475 24.991 22.306 25.1501ZM15.4367 28.2221C15.8134 28.3615 16.0719 28.8033 16.0294 29.2353C15.9956 29.5791 15.8503 29.807 15.5269 30.0238C15.3473 30.1442 15.2461 30.1659 14.9553 30.146C14.3638 30.1057 13.9707 29.7096 13.9707 29.1541C13.9707 28.4039 14.6909 27.9461 15.4367 28.2221Z" fill="white"/>
</g>
</svg>
