<svg width="12" height="12" viewBox="0 0 12 12" fill="none" xmlns="http://www.w3.org/2000/svg">
<g id="Frame 4">
<path id="image 10 (Traced)" fill-rule="evenodd" clip-rule="evenodd" d="M9.66744 0.0278671C9.33392 0.11384 9.19474 0.215766 8.61578 0.797957L8.16343 1.25286L9.45115 2.54185L10.7388 3.83083L11.2553 3.30636C11.8017 2.75151 11.8754 2.6525 11.9597 2.36011C12.0131 2.17501 12.0135 1.85858 11.9605 1.67729C11.871 1.37085 11.8063 1.28229 11.2921 0.76304C10.7799 0.245859 10.6758 0.16278 10.4237 0.0702656C10.2262 -0.00222587 9.86315 -0.0225781 9.66744 0.0278671ZM4.07784 5.34254L0.756262 8.66786L0.37195 10.2063C0.129946 11.175 -0.00766105 11.7682 0.000329776 11.8082C0.0191787 11.9025 0.129476 11.9975 0.223109 12C0.266354 12.0012 0.978595 11.8339 1.80588 11.6282L3.31004 11.2544L6.64738 7.91821L9.98472 4.58208L8.70391 3.29965C7.99947 2.59431 7.41779 2.01723 7.41126 2.01723C7.40472 2.01723 5.9047 3.51362 4.07784 5.34254Z" fill="black" fill-opacity="0.61"/>
</g>
</svg>
